<svg width="50" height="54" viewBox="0 0 30 33" fill="none" xmlns="http://www.w3.org/2000/svg">
<path d="M26.2873 20.625H11.0194L11.3603 22.6875H25.3404C26.1425 22.6875 26.737 23.6092 26.5593 24.5772L26.2719 26.1419C27.2454 26.7266 27.9167 27.9616 27.9167 29.3906C27.9167 31.4017 26.5876 33.0286 24.9571 32.9996C23.4038 32.972 22.1264 31.4121 22.0844 29.4903C22.0615 28.4406 22.4014 27.4891 22.9596 26.8124H12.0404C12.5809 27.4677 12.9167 28.3804 12.9167 29.3906C12.9167 31.4411 11.535 33.0922 9.86094 32.996C8.37448 32.9106 7.16557 31.4243 7.08745 29.5853C7.02714 28.1652 7.63099 26.9134 8.54844 26.2605L4.88974 4.125H1.25C0.559636 4.125 0 3.43245 0 2.57812V1.54687C0 0.692549 0.559636 0 1.25 0H6.59005C7.18386 0 7.69568 0.516978 7.81469 1.23686L8.29208 4.125H28.7495C29.5516 4.125 30.1462 5.04674 29.9684 6.0147L27.5063 19.4209C27.3769 20.1252 26.871 20.625 26.2873 20.625ZM20.9911 12.375H18.75V8.50781C18.75 8.08068 18.4702 7.73437 18.125 7.73437H16.875C16.5298 7.73437 16.25 8.08068 16.25 8.50781V12.375H14.0089C13.4521 12.375 13.1732 13.2081 13.567 13.6953L17.0581 18.0155C17.3021 18.3176 17.6979 18.3176 17.942 18.0155L21.4331 13.6953C21.8268 13.2081 21.5479 12.375 20.9911 12.375Z" fill="white"/>
</svg>
